<?xml version="1.0" encoding="utf-8"?>
<!-- Generator: Adobe Illustrator 18.0.0, SVG Export Plug-In . SVG Version: 6.00 Build 0)  -->
<!DOCTYPE svg PUBLIC "-//W3C//DTD SVG 1.1//EN" "http://www.w3.org/Graphics/SVG/1.1/DTD/svg11.dtd">
<svg version="1.1" id="s" xmlns="http://www.w3.org/2000/svg" xmlns:xlink="http://www.w3.org/1999/xlink" x="0px" y="0px"
	 viewBox="0 0 27 27" enable-background="new 0 0 27 27" xml:space="preserve">
<g>
	<g>
		<defs>
			<path id="SVGID_5_" d="M13.5,1.5c6.6,0,12,5.4,12,12c0,6.6-5.4,12-12,12s-12-5.4-12-12C1.5,6.9,6.9,1.5,13.5,1.5z"/>
		</defs>
		<clipPath id="SVGID_2_">
			<use xlink:href="#SVGID_5_"  overflow="visible"/>
		</clipPath>
		<g clip-path="url(#SVGID_2_)">
			<rect x="-6" y="1.5" fill-rule="evenodd" clip-rule="evenodd" fill="#00247D" width="38.9" height="24"/>
			<path fill="#FFFFFF" d="M33,1.5v2.7L-1.6,25.5H-6v-2.7L28.6,1.5H33z M-6,1.5v2.7l34.6,21.3H33v-2.7L-1.6,1.5H-6z"/>
			<path fill="#FFFFFF" d="M-6,9.5v8H33v-8H-6z M10.3,1.5v24h6.5v-24H10.3z"/>
			<path fill="#CF142B" d="M11.6,1.5v24h3.9v-24H11.6z M-6,11.1v4.8H33v-4.8H-6z"/>
			<path fill="#CF142B" d="M33,25.5l-13-8h2.9L33,23.7V25.5z M17.1,9.5l13-8H33l-13,8H17.1z M-6,1.5l13,8H4.1L-6,3.3V1.5z M-6,25.5
				l13-8h2.9l-13,8H-6z"/>
		</g>
	</g>
	<path fill-rule="evenodd" clip-rule="evenodd" fill="none" stroke="#CCCCCC" stroke-miterlimit="10" d="M13.5,1.5
		c6.6,0,12,5.4,12,12c0,6.6-5.4,12-12,12s-12-5.4-12-12C1.5,6.9,6.9,1.5,13.5,1.5z"/>
</g>
</svg>
