<?xml version="1.0" encoding="utf-8"?>
<!-- Generator: Adobe Illustrator 18.0.0, SVG Export Plug-In . SVG Version: 6.00 Build 0)  -->
<!DOCTYPE svg PUBLIC "-//W3C//DTD SVG 1.1//EN" "http://www.w3.org/Graphics/SVG/1.1/DTD/svg11.dtd">
<svg version="1.1" id="Ebene_1" xmlns="http://www.w3.org/2000/svg" xmlns:xlink="http://www.w3.org/1999/xlink" x="0px" y="0px"
	 viewBox="0 0 800 296" enable-background="new 0 0 800 296" xml:space="preserve">
<g id="g8100">
	<g id="g3471">
		<polygon id="polygon10" fill="#FFFFFF" points="677.5,107.3 702.5,107.3 702.5,96.8 641.4,96.8 641.4,107.3 666.1,107.3 
			666.1,199.3 677.5,199.3 		"/>
		<polygon id="polygon12" fill="#FFFFFF" points="586.9,199.3 586.9,96.8 598.3,96.8 598.3,199.3 		"/>
		<path id="path14" fill="#FFFFFF" d="M409.6,159.6l-17.1-41l-17.5,41H409.6 M414.1,170.1h-43.8L358,199.3h-12.5l45.1-102.4l2.2-4.8
			l2.1,4.8l44,102.4h-12.6L414.1,170.1L414.1,170.1z"/>
		<path id="path16" fill="#FFFFFF" d="M514.7,152.6l24.9,46.5h-13.3l-23.3-45h-15.4v45h-11.4V96.8h27c16.9,0,32.3,7.7,32.3,28.3
			C535.7,141.4,525.3,149.6,514.7,152.6 M487.7,107.3v36.8H502c13.2,0,22.2-6.1,22.2-19.1s-10.6-17.7-22.4-17.7L487.7,107.3
			L487.7,107.3z"/>
		<polygon id="polygon18" fill="#FFFFFF" points="743.8,199.3 799.3,199.3 799.3,188.6 755.2,188.6 755.2,148.4 793,148.4 
			793,137.9 755.2,137.9 755.2,107.3 797.6,107.3 797.6,96.8 743.8,96.8 		"/>
		<polygon id="polygon20" fill="#FFFFFF" points="776.4,59.5 760.2,81.8 767,85.7 787.8,64.8 		"/>
		<polygon id="polygon22" fill="#FFFFFF" points="244.6,138.4 279.4,138.4 279.4,148.9 244.6,148.9 244.6,199.3 233.2,199.3 
			233.2,96.8 244.6,96.8 		"/>
		<polygon id="polygon24" fill="#FFFFFF" points="295,199.3 295,96.8 306.4,96.8 306.4,199.3 		"/>
		<path id="path28" fill="#FFFFFF" d="M188.2,104.7c-9-6.7-19-10-30.3-10c-33.3,0-54.1,24.9-54.1,53.7s21,52.9,54.1,52.9
			c10.8,0,21.5-3.6,30.3-10v-13.7c-8.1,8.1-19.1,13.4-30.6,13.4c-24.9,0-41.3-20.6-41.3-43s16.1-43,41.1-43c11.8,0,22.8,5,30.9,13.3
			L188.2,104.7L188.2,104.7z"/>
	</g>
	<g id="g3534">
		<path id="path26" fill="#FFFFFF" d="M0,147.9C0,66.3,65.7,0.3,149,0.3c36.5,0,69.8,13.2,95.6,35.1V58c-23.8-25.2-57.5-41-94.9-41
			c-73,0-130,58.4-130,130.4s57.1,130.4,130,130.4c37.4,0,71.1-15.7,94.9-41v23.7c-25.8,21.9-59.1,35.1-95.6,35.1
			C65.8,295.8,0,229.6,0,147.9L0,147.9z"/>
		<g id="g3482">
			<path id="path30" fill="#FFFFFF" d="M278.2,261c-6,0-9.1-3.9-9.1-10.6v-14h3.6v13.9c0,4.6,1.9,7,5.5,7c3.8,0,5.6-2.4,5.6-6.8
				v-14.2h3.6v14.1C287.5,257.4,284.2,261,278.2,261L278.2,261z"/>
			<path id="path32" fill="#FFFFFF" d="M309.1,260.6l-9.7-15.2c-0.6-0.9-1.4-2.4-1.8-3c0,0.9,0,4.3,0,5.6v12.6h-3.5v-24.2h3.7
				l9.2,14.8c0.6,1,1.7,2.8,2,3.4c0-0.9,0-4.4,0-5.7v-12.5h3.5v24.2H309.1L309.1,260.6z"/>
			<polygon id="polygon34" fill="#FFFFFF" points="319.7,260.6 319.7,236.4 323.3,236.4 323.3,260.6 			"/>
			<path id="path36" fill="#FFFFFF" d="M341.1,260.6h-3.8l-8.4-24.2h3.9l5.1,15.4c0.5,1.4,1.1,3.6,1.3,4.4c0.2-0.9,0.9-3,1.3-4.5
				l5-15.4h3.9L341.1,260.6L341.1,260.6z"/>
			<polygon id="polygon38" fill="#FFFFFF" points="354.8,260.6 354.8,236.4 370.4,236.4 370.4,239.9 358.4,239.9 358.4,245.9 
				365.3,245.9 365.3,249.4 358.4,249.4 358.4,257 370.9,257 370.9,260.6 			"/>
			<path id="path40" fill="#FFFFFF" d="M387.2,239.9h-7.1v7.8h7.1c2.4,0,4.1-1.2,4.1-3.9C391.4,241.3,389.7,239.9,387.2,239.9
				L387.2,239.9z M389.7,250.8l4.9,9.9h-4.2l-4.8-9.6h-5.5v9.6h-3.6v-24.2h10.6c4.2,0,7.8,2.3,7.8,7.2
				C395,247.6,393,249.9,389.7,250.8L389.7,250.8z"/>
			<path id="path42" fill="#FFFFFF" d="M408.5,261c-3.5,0-6.6-1.5-8.6-3.9l2.6-2.5c1.6,1.8,4,2.9,6.3,2.9c3.4,0,5-1.2,5-3.5
				c0-1.9-1.4-2.8-5.5-4c-5.1-1.5-7.6-2.8-7.6-7.1c0-4.2,3.5-6.7,8-6.7c3.3,0,5.8,1.2,7.9,3.3l-2.6,2.6c-1.5-1.6-3.3-2.3-5.6-2.3
				c-2.8,0-4,1.4-4,3c0,1.7,1.1,2.5,5.3,3.8c4.8,1.5,7.8,3,7.8,7.3C417.4,258,414.7,261,408.5,261L408.5,261z"/>
			<polygon id="polygon44" fill="#FFFFFF" points="423.6,260.6 423.6,236.4 427.3,236.4 427.3,260.6 			"/>
			<polygon id="polygon46" fill="#FFFFFF" points="443.5,239.9 443.5,260.6 439.9,260.6 439.9,239.9 432.8,239.9 432.8,236.4 
				450.6,236.4 450.6,239.9 			"/>
			<path id="path48" fill="#FFFFFF" d="M468.3,234.9c-1.3,0-2.4-1.1-2.4-2.3c0-1.3,1.1-2.4,2.4-2.4c1.2,0,2.3,1.1,2.3,2.4
				C470.7,233.8,469.6,234.9,468.3,234.9z M466.8,246.1c-0.6-1.7-1.6-4.5-1.8-5.6c-0.3,1-1.1,3.8-1.8,5.6l-1.9,5.5h7.5L466.8,246.1
				L466.8,246.1z M461.6,234.9c-1.3,0-2.4-1.1-2.4-2.3c0-1.3,1.1-2.4,2.4-2.4c1.2,0,2.3,1.1,2.3,2.4
				C463.9,233.8,462.8,234.9,461.6,234.9z M471.9,260.6l-2-5.7h-9.7l-2,5.7h-3.8l8.7-24.2h3.8l8.8,24.2H471.9L471.9,260.6z"/>
			<polygon id="polygon50" fill="#FFFFFF" points="490.3,239.9 490.3,260.6 486.7,260.6 486.7,239.9 479.6,239.9 479.6,236.4 
				497.4,236.4 497.4,239.9 			"/>
			<path id="path52" fill="#FFFFFF" d="M509.1,261c-3.5,0-6.6-1.5-8.6-3.9l2.6-2.5c1.6,1.8,4,2.9,6.3,2.9c3.4,0,5-1.2,5-3.5
				c0-1.9-1.4-2.8-5.5-4c-5.1-1.5-7.6-2.8-7.6-7.1c0-4.2,3.5-6.7,8-6.7c3.3,0,5.8,1.2,7.9,3.3l-2.6,2.6c-1.5-1.6-3.3-2.3-5.6-2.3
				c-2.8,0-4,1.4-4,3c0,1.7,1.1,2.5,5.3,3.8c4.8,1.5,7.8,3,7.8,7.3C518.1,258,515.3,261,509.1,261L509.1,261z"/>
			<path id="path54" fill="#FFFFFF" d="M542.2,260.6v-12.8c0-1.5,0-3.6,0.1-4.3c-0.3,0.7-1,2.4-1.6,3.8l-5.9,13.6l-5.8-13.6
				c-0.6-1.4-1.3-3.1-1.6-3.8c0,0.7,0.1,2.8,0.1,4.3v12.8h-3.4v-24.2h3.7l5.4,12.9c0.6,1.4,1.4,3.1,1.7,4.2c0.3-1,1-2.7,1.6-4.2
				l5.3-12.9h3.9v24.2L542.2,260.6L542.2,260.6z"/>
			<polygon id="polygon56" fill="#FFFFFF" points="552.7,260.6 552.7,236.4 568.3,236.4 568.3,239.9 556.3,239.9 556.3,245.9 
				563.3,245.9 563.3,249.4 556.3,249.4 556.3,257 568.8,257 568.8,260.6 			"/>
			<path id="path58" fill="#FFFFFF" d="M581.1,239.9h-3v17.2h3c5.7,0,8.1-3.5,8.1-8.6C589.2,243.4,586.9,239.9,581.1,239.9
				L581.1,239.9z M581.1,260.6h-6.6v-24.2h6.6c6.5,0,11.8,3.6,11.8,12.1C592.9,257,587.5,260.6,581.1,260.6z"/>
			<polygon id="polygon60" fill="#FFFFFF" points="598.8,260.6 598.8,236.4 602.4,236.4 602.4,260.6 			"/>
			<path id="path62" fill="#FFFFFF" d="M608.4,260.6v-3.5l11.8-14.3c0.8-0.9,2.1-2.5,2.7-3.1c-1,0-3.5,0.1-4.9,0.1h-9v-3.4h17.7v3.5
				l-11.6,14.3c-0.8,0.9-2.1,2.5-2.7,3.1c1,0,3.5-0.1,4.9-0.1h9.5v3.4H608.4L608.4,260.6z"/>
			<polygon id="polygon64" fill="#FFFFFF" points="633.2,260.6 633.2,236.4 636.9,236.4 636.9,260.6 			"/>
			<path id="path66" fill="#FFFFFF" d="M658.9,260.6l-9.7-15.2c-0.6-0.9-1.4-2.4-1.8-3c0,0.9,0,4.3,0,5.6v12.6h-3.5v-24.2h3.7
				l9.2,14.8c0.6,1,1.7,2.8,2,3.4c0-0.9,0-4.4,0-5.7v-12.5h3.5v24.2H658.9L658.9,260.6z"/>
			<path id="path68" fill="#FFFFFF" d="M689.1,249.3h-6.6v8h6.5c3.2,0,4.4-1.6,4.4-4C693.4,250.8,691.9,249.3,689.1,249.3
				L689.1,249.3z M689.1,239.8h-6.5v6.3h6.5c2.4,0,3.4-1.5,3.4-3.1C692.4,241.1,691.5,239.8,689.1,239.8L689.1,239.8z M688.8,260.6
				h-9.6v-24.2h10c4.2,0,7,2.2,7,6.3c0,2.5-1.3,4-3.1,4.8c1.9,0.5,4.1,2.3,4.1,5.6C697.1,258,694.1,260.6,688.8,260.6L688.8,260.6z"
				/>
			<polygon id="polygon70" fill="#FFFFFF" points="703.1,260.6 703.1,236.4 718.7,236.4 718.7,239.9 706.7,239.9 706.7,245.9 
				713.7,245.9 713.7,249.4 706.7,249.4 706.7,257 719.2,257 719.2,260.6 			"/>
			<path id="path72" fill="#FFFFFF" d="M735.6,239.9h-7.1v7.8h7.1c2.4,0,4.1-1.2,4.1-3.9C739.7,241.3,738,239.9,735.6,239.9
				L735.6,239.9z M738,250.8l5,9.9h-4.2L734,251h-5.5v9.6H725v-24.2h10.6c4.2,0,7.8,2.3,7.8,7.2C743.4,247.6,741.3,249.9,738,250.8
				L738,250.8z"/>
			<polygon id="polygon74" fill="#FFFFFF" points="749.6,260.6 749.6,236.4 753.2,236.4 753.2,257 765.3,257 765.3,260.6 			"/>
			<polygon id="polygon76" fill="#FFFFFF" points="770.9,260.6 770.9,236.4 774.5,236.4 774.5,260.6 			"/>
			<path id="path78" fill="#FFFFFF" d="M796.5,260.6l-9.7-15.2c-0.6-0.9-1.4-2.4-1.8-3c0,0.9,0,4.3,0,5.6v12.6h-3.5v-24.2h3.7
				l9.2,14.8c0.6,1,1.7,2.8,2,3.4c0-0.9,0-4.4,0-5.7v-12.5h3.5v24.2H796.5L796.5,260.6z"/>
			<path id="path80" fill="#FFFFFF" d="M278.2,261c-6,0-9.1-3.9-9.1-10.6v-14h3.6v13.9c0,4.6,1.9,7,5.5,7c3.8,0,5.6-2.4,5.6-6.8
				v-14.2h3.6v14.1C287.5,257.4,284.2,261,278.2,261L278.2,261z"/>
			<path id="path82" fill="#FFFFFF" d="M309.1,260.6l-9.7-15.2c-0.6-0.9-1.4-2.4-1.8-3c0,0.9,0,4.3,0,5.6v12.6h-3.5v-24.2h3.7
				l9.2,14.8c0.6,1,1.7,2.8,2,3.4c0-0.9,0-4.4,0-5.7v-12.5h3.5v24.2H309.1L309.1,260.6z"/>
			<polygon id="polygon84" fill="#FFFFFF" points="319.7,260.6 319.7,236.4 323.3,236.4 323.3,260.6 			"/>
			<path id="path86" fill="#FFFFFF" d="M341.1,260.6h-3.8l-8.4-24.2h3.9l5.1,15.4c0.5,1.4,1.1,3.6,1.3,4.4c0.2-0.9,0.9-3,1.3-4.5
				l5-15.4h3.9L341.1,260.6L341.1,260.6z"/>
			<polygon id="polygon88" fill="#FFFFFF" points="354.8,260.6 354.8,236.4 370.4,236.4 370.4,239.9 358.4,239.9 358.4,245.9 
				365.3,245.9 365.3,249.4 358.4,249.4 358.4,257 370.9,257 370.9,260.6 			"/>
			<path id="path90" fill="#FFFFFF" d="M387.2,239.9h-7.1v7.8h7.1c2.4,0,4.1-1.2,4.1-3.9C391.4,241.3,389.7,239.9,387.2,239.9
				L387.2,239.9z M389.7,250.8l4.9,9.9h-4.2l-4.8-9.6h-5.5v9.6h-3.6v-24.2h10.6c4.2,0,7.8,2.3,7.8,7.2
				C395,247.6,393,249.9,389.7,250.8L389.7,250.8z"/>
			<path id="path92" fill="#FFFFFF" d="M408.5,261c-3.5,0-6.6-1.5-8.6-3.9l2.6-2.5c1.6,1.8,4,2.9,6.3,2.9c3.4,0,5-1.2,5-3.5
				c0-1.9-1.4-2.8-5.5-4c-5.1-1.5-7.6-2.8-7.6-7.1c0-4.2,3.5-6.7,8-6.7c3.3,0,5.8,1.2,7.9,3.3l-2.6,2.6c-1.5-1.6-3.3-2.3-5.6-2.3
				c-2.8,0-4,1.4-4,3c0,1.7,1.1,2.5,5.3,3.8c4.8,1.5,7.8,3,7.8,7.3C417.4,258,414.7,261,408.5,261L408.5,261z"/>
			<polygon id="polygon94" fill="#FFFFFF" points="423.6,260.6 423.6,236.4 427.3,236.4 427.3,260.6 			"/>
			<polygon id="polygon96" fill="#FFFFFF" points="443.5,239.9 443.5,260.6 439.9,260.6 439.9,239.9 432.8,239.9 432.8,236.4 
				450.6,236.4 450.6,239.9 			"/>
			<path id="path98" fill="#FFFFFF" d="M468.3,234.9c-1.3,0-2.4-1.1-2.4-2.3c0-1.3,1.1-2.4,2.4-2.4c1.2,0,2.3,1.1,2.3,2.4
				C470.7,233.8,469.6,234.9,468.3,234.9z M466.8,246.1c-0.6-1.7-1.6-4.5-1.8-5.6c-0.3,1-1.1,3.8-1.8,5.6l-1.9,5.5h7.5L466.8,246.1
				L466.8,246.1z M461.6,234.9c-1.3,0-2.4-1.1-2.4-2.3c0-1.3,1.1-2.4,2.4-2.4c1.2,0,2.3,1.1,2.3,2.4
				C463.9,233.8,462.8,234.9,461.6,234.9z M471.9,260.6l-2-5.7h-9.7l-2,5.7h-3.8l8.7-24.2h3.8l8.8,24.2H471.9L471.9,260.6z"/>
			<polygon id="polygon100" fill="#FFFFFF" points="490.3,239.9 490.3,260.6 486.7,260.6 486.7,239.9 479.6,239.9 479.6,236.4 
				497.4,236.4 497.4,239.9 			"/>
			<path id="path102" fill="#FFFFFF" d="M509.1,261c-3.5,0-6.6-1.5-8.6-3.9l2.6-2.5c1.6,1.8,4,2.9,6.3,2.9c3.4,0,5-1.2,5-3.5
				c0-1.9-1.4-2.8-5.5-4c-5.1-1.5-7.6-2.8-7.6-7.1c0-4.2,3.5-6.7,8-6.7c3.3,0,5.8,1.2,7.9,3.3l-2.6,2.6c-1.5-1.6-3.3-2.3-5.6-2.3
				c-2.8,0-4,1.4-4,3c0,1.7,1.1,2.5,5.3,3.8c4.8,1.5,7.8,3,7.8,7.3C518.1,258,515.3,261,509.1,261L509.1,261z"/>
			<path id="path104" fill="#FFFFFF" d="M542.2,260.6v-12.8c0-1.5,0-3.6,0.1-4.3c-0.3,0.7-1,2.4-1.6,3.8l-5.9,13.6l-5.8-13.6
				c-0.6-1.4-1.3-3.1-1.6-3.8c0,0.7,0.1,2.8,0.1,4.3v12.8h-3.4v-24.2h3.7l5.4,12.9c0.6,1.4,1.4,3.1,1.7,4.2c0.3-1,1-2.7,1.6-4.2
				l5.3-12.9h3.9v24.2L542.2,260.6L542.2,260.6z"/>
			<polygon id="polygon106" fill="#FFFFFF" points="552.7,260.6 552.7,236.4 568.3,236.4 568.3,239.9 556.3,239.9 556.3,245.9 
				563.3,245.9 563.3,249.4 556.3,249.4 556.3,257 568.8,257 568.8,260.6 			"/>
			<path id="path108" fill="#FFFFFF" d="M581.1,239.9h-3v17.2h3c5.7,0,8.1-3.5,8.1-8.6C589.2,243.4,586.9,239.9,581.1,239.9
				L581.1,239.9z M581.1,260.6h-6.6v-24.2h6.6c6.5,0,11.8,3.6,11.8,12.1C592.9,257,587.5,260.6,581.1,260.6z"/>
			<polygon id="polygon110" fill="#FFFFFF" points="598.8,260.6 598.8,236.4 602.4,236.4 602.4,260.6 			"/>
			<path id="path112" fill="#FFFFFF" d="M608.4,260.6v-3.5l11.8-14.3c0.8-0.9,2.1-2.5,2.7-3.1c-1,0-3.5,0.1-4.9,0.1h-9v-3.4h17.7
				v3.5l-11.6,14.3c-0.8,0.9-2.1,2.5-2.7,3.1c1,0,3.5-0.1,4.9-0.1h9.5v3.4H608.4L608.4,260.6z"/>
			<polygon id="polygon114" fill="#FFFFFF" points="633.2,260.6 633.2,236.4 636.9,236.4 636.9,260.6 			"/>
			<path id="path116" fill="#FFFFFF" d="M658.9,260.6l-9.7-15.2c-0.6-0.9-1.4-2.4-1.8-3c0,0.9,0,4.3,0,5.6v12.6h-3.5v-24.2h3.7
				l9.2,14.8c0.6,1,1.7,2.8,2,3.4c0-0.9,0-4.4,0-5.7v-12.5h3.5v24.2H658.9L658.9,260.6z"/>
			<path id="path118" fill="#FFFFFF" d="M689.1,249.3h-6.6v8h6.5c3.2,0,4.4-1.6,4.4-4C693.4,250.8,691.9,249.3,689.1,249.3
				L689.1,249.3z M689.1,239.8h-6.5v6.3h6.5c2.4,0,3.4-1.5,3.4-3.1C692.4,241.1,691.5,239.8,689.1,239.8L689.1,239.8z M688.8,260.6
				h-9.6v-24.2h10c4.2,0,7,2.2,7,6.3c0,2.5-1.3,4-3.1,4.8c1.9,0.5,4.1,2.3,4.1,5.6C697.1,258,694.1,260.6,688.8,260.6L688.8,260.6z"
				/>
			<polygon id="polygon120" fill="#FFFFFF" points="703.1,260.6 703.1,236.4 718.7,236.4 718.7,239.9 706.7,239.9 706.7,245.9 
				713.7,245.9 713.7,249.4 706.7,249.4 706.7,257 719.2,257 719.2,260.6 			"/>
			<path id="path122" fill="#FFFFFF" d="M735.6,239.9h-7.1v7.8h7.1c2.4,0,4.1-1.2,4.1-3.9C739.7,241.3,738,239.9,735.6,239.9
				L735.6,239.9z M738,250.8l5,9.9h-4.2L734,251h-5.5v9.6H725v-24.2h10.6c4.2,0,7.8,2.3,7.8,7.2C743.4,247.6,741.3,249.9,738,250.8
				L738,250.8z"/>
			<polygon id="polygon124" fill="#FFFFFF" points="749.6,260.6 749.6,236.4 753.2,236.4 753.2,257 765.3,257 765.3,260.6 			"/>
			<polygon id="polygon126" fill="#FFFFFF" points="770.9,260.6 770.9,236.4 774.5,236.4 774.5,260.6 			"/>
			<path id="path128" fill="#FFFFFF" d="M796.5,260.6l-9.7-15.2c-0.6-0.9-1.4-2.4-1.8-3c0,0.9,0,4.3,0,5.6v12.6h-3.5v-24.2h3.7
				l9.2,14.8c0.6,1,1.7,2.8,2,3.4c0-0.9,0-4.4,0-5.7v-12.5h3.5v24.2H796.5L796.5,260.6z"/>
		</g>
	</g>
</g>
</svg>
